<?xml version="1.0" encoding="utf-8"?>

<!DOCTYPE svg PUBLIC "-//W3C//DTD SVG 1.1//EN" "http://www.w3.org/Graphics/SVG/1.1/DTD/svg11.dtd">
<!-- Uploaded to: SVG Repo, www.svgrepo.com, Generator: SVG Repo Mixer Tools -->
<svg height="800px" width="800px" version="1.1" id="_x32_" xmlns="http://www.w3.org/2000/svg" xmlns:xlink="http://www.w3.org/1999/xlink" 
	 viewBox="0 0 512 512"  xml:space="preserve">
<style type="text/css">
	.st0{fill:#000000;}
</style>
<g>
	<path class="st0" d="M487.014,300.33l-211.416,69.377c6.826,7.133,12.37,15.629,16.202,25.26l204.272-67.029
		c7.63-2.499,11.778-10.71,9.281-18.335C502.846,301.977,494.639,297.824,487.014,300.33z"/>
	<path class="st0" d="M228.332,345.781l-76.42-232.859c-11.163-34.021-40.151-59.102-75.416-65.26L17.03,37.273
		C9.126,35.893,1.595,41.172,0.218,49.09c-1.376,7.918,3.907,15.44,11.821,16.821l-0.009-0.01L71.496,76.29
		c24.684,4.314,44.986,21.873,52.8,45.686l74.078,225.735C208.413,345.09,218.54,344.531,228.332,345.781z"/>
	<path class="st0" d="M199.736,367.398c-31.358,10.313-48.41,44.04-38.136,75.402c10.303,31.353,44.027,48.411,75.394,38.128
		c31.358-10.293,48.415-44.022,38.136-75.384C264.832,374.192,231.104,357.124,199.736,367.398z M237.098,433.643
		c-2.469,4.844-6.623,8.638-12.185,10.473c-5.568,1.808-11.155,1.23-16.022-1.22c-4.844-2.479-8.638-6.623-10.469-12.186
		c-1.821-5.564-1.225-11.154,1.211-16.008c2.474-4.854,6.628-8.648,12.19-10.473c5.567-1.826,11.159-1.23,16.022,1.201
		c4.844,2.478,8.633,6.632,10.469,12.204C240.13,423.179,239.534,428.771,237.098,433.643z"/>
	<path class="st0" d="M512,266.641l-3.023-9.215L433.712,28.078l-254.675,83.577l78.288,238.544L512,266.641z M421.342,52.524
		l66.206,201.743L269.69,325.752l-66.198-201.733L421.342,52.524z"/>
	<path class="st0" d="M389.279,213.263c13.69,5.658,19.626,19.906,16.864,26.282c-2.332,5.431-6.693,13.075-6.693,13.075
		l17.351-5.694l17.361-5.696c0,0-8.042-3.577-13.137-6.557c-6.012-3.51-9.668-18.496-1.991-31.174
		c12.919-21.305,7.01-37.219,7.01-37.219s-5.076,1.675-11.216,3.681l-5.648,11.164l4.905-1.618l-11.792,27.928l1.731-20.738
		l-8.401,2.752l1.646-13.728c-1.636,0.549-2.862,0.946-3.458,1.145c-3.713,1.22-32.229,10.577-32.229,10.577
		S366.246,203.755,389.279,213.263z"/>
</g>
</svg>